<svg width="600" height="808" viewBox="0 0 600 808" fill="none" xmlns="http://www.w3.org/2000/svg">
<path d="M208 5.94434H382.678C382.678 33.3795 382.678 94.8343 382.678 121.172C382.678 147.51 266.226 132.146 208 121.172V71.7888C252.162 68.4965 341.115 63.8874 343.629 71.7888C346.143 79.6901 344.676 101.419 343.629 111.295H255.638V88.2499C279.627 84.731 326.07 88.2499 329.893 88.2499" stroke="white" stroke-width="10"/>
<path d="M360.224 193.918L360.224 368.597C332.789 368.597 271.334 368.597 244.997 368.597C218.659 368.597 234.023 252.145 244.997 193.918L294.38 193.918C297.672 238.08 302.281 327.033 294.38 329.547C286.479 332.061 264.75 330.594 254.873 329.547L254.873 241.557L277.919 241.557C281.438 265.545 277.919 311.989 277.919 315.811" stroke="white" stroke-width="10"/>
<path d="M5 5.94434H179.678C179.678 33.3795 179.678 94.8343 179.678 121.172C179.678 147.51 63.2262 132.146 5 121.172V71.7888C49.162 68.4965 138.115 63.8874 140.629 71.7888C143.143 79.6901 141.676 101.419 140.629 111.295H52.6381V88.2499C76.6267 84.731 123.07 88.2499 126.893 88.2499" stroke="white" stroke-width="10"/>
<path d="M157.224 193.918L157.224 368.597C129.789 368.597 68.3344 368.597 41.9966 368.597C15.6588 368.597 31.0225 252.145 41.9966 193.918L91.3799 193.918C94.6722 238.08 99.2813 327.033 91.3799 329.547C83.4786 332.061 61.7499 330.594 51.8733 329.547L51.8733 241.557L74.9188 241.557C78.4377 265.545 74.9188 311.989 74.9188 315.811" stroke="white" stroke-width="10"/>
<path d="M420.322 12.5923H595C595 40.0275 595 101.482 595 127.82C595 154.158 478.548 138.794 420.322 127.82V78.4367C464.484 75.1445 553.436 70.5354 555.95 78.4367C558.464 86.338 556.998 108.067 555.95 117.943H467.96V94.8978C491.948 91.3789 538.392 94.8978 542.214 94.8978" stroke="white" stroke-width="10"/>
<path d="M572.546 200.566L572.546 375.245C545.111 375.245 483.656 375.245 457.318 375.245C430.98 375.245 446.344 258.793 457.318 200.566L506.701 200.566C509.994 244.728 514.603 333.681 506.701 336.195C498.8 338.709 477.071 337.242 467.195 336.195L467.195 248.204L490.24 248.204C493.759 272.193 490.24 318.637 490.24 322.459" stroke="white" stroke-width="10"/>
<path d="M420.322 433.449H595C595 460.884 595 522.339 595 548.677C595 575.014 478.548 559.651 420.322 548.677V499.293C464.484 496.001 553.436 491.392 555.95 499.293C558.464 507.194 556.998 528.923 555.95 538.8H467.96V515.754C491.948 512.235 538.392 515.754 542.214 515.754" stroke="white" stroke-width="10"/>
<path d="M572.546 621.423L572.546 796.101C545.111 796.101 483.656 796.101 457.318 796.101C430.98 796.101 446.344 679.649 457.318 621.423L506.701 621.423C509.994 665.585 514.603 754.537 506.701 757.051C498.8 759.565 477.071 758.099 467.195 757.051L467.195 669.061L490.24 669.061C493.759 693.05 490.24 739.493 490.24 743.315" stroke="white" stroke-width="10"/>
<path d="M208 440.097H382.678C382.678 467.532 382.678 528.987 382.678 555.324C382.678 581.662 266.226 566.299 208 555.324V505.941C252.162 502.649 341.115 498.04 343.629 505.941C346.143 513.842 344.676 535.571 343.629 545.448H255.638V522.402C279.627 518.883 326.07 522.402 329.893 522.402" stroke="white" stroke-width="10"/>
<path d="M360.224 628.071L360.224 802.749C332.789 802.749 271.334 802.749 244.997 802.749C218.659 802.749 234.023 686.297 244.997 628.071L294.38 628.071C297.672 672.233 302.281 761.185 294.38 763.699C286.479 766.213 264.75 764.747 254.873 763.699L254.873 675.709L277.919 675.709C281.438 699.697 277.919 746.141 277.919 749.963" stroke="white" stroke-width="10"/>
<path d="M5 440.097H179.678C179.678 467.532 179.678 528.987 179.678 555.324C179.678 581.662 63.2262 566.299 5 555.324V505.941C49.162 502.649 138.115 498.04 140.629 505.941C143.143 513.842 141.676 535.571 140.629 545.448H52.6381V522.402C76.6267 518.883 123.07 522.402 126.893 522.402" stroke="white" stroke-width="10"/>
<path d="M157.224 628.071L157.224 802.749C129.789 802.749 68.3344 802.749 41.9966 802.749C15.6588 802.749 31.0225 686.297 41.9966 628.071L91.3799 628.071C94.6722 672.233 99.2813 761.185 91.3799 763.699C83.4786 766.213 61.7499 764.747 51.8733 763.699L51.8733 675.709L74.9188 675.709C78.4377 699.697 74.9188 746.141 74.9188 749.963" stroke="white" stroke-width="10"/>
</svg>
