<svg width="676" height="721" viewBox="0 0 676 721" fill="none" xmlns="http://www.w3.org/2000/svg">
<path d="M469.736 124.568C406.43 74.8084 252.152 24.6768 141.483 222.228C117.19 267.386 75.2519 371.876 101.852 428.564C91.4562 443.815 69.5561 476.696 65.1252 486.208C60.6944 495.719 73.9345 512.661 81.1085 519.942C89.0952 526.32 109.749 532.813 128.471 507.768C120.349 520.709 107.779 548.201 122.467 554.639C125.054 556.496 134.475 562.228 151.459 570.297C168.444 578.365 179.866 556.246 183.455 544.178C178.583 557.031 170.68 584.054 178.041 589.323C187.242 595.909 205.571 613.503 230.675 590.964C234.286 587.81 242.652 580.816 247.232 578.075C243.91 585.881 239.174 605.335 246.802 620.704C254.429 636.072 276.198 636.625 286.129 634.98C290.469 634.454 303.054 626.287 318.67 597.829C347.598 600.969 427.467 583.787 515.515 489.945C625.575 372.642 608.89 224.169 469.736 124.568Z" stroke="#FF71F1" stroke-width="19.883"/>
<path d="M176.309 657.159C182.597 652.85 202.401 651.476 211.518 651.328C216.832 668.145 216.853 700.093 174.427 693.351C132.001 686.608 77.7974 626.022 55.9989 596.572C57.8097 584.02 65.7192 557.682 82.8715 552.741C100.024 547.8 98.1284 578.51 95.0367 594.482C104.031 590.076 123.317 580.989 128.504 579.897C133.691 578.805 133.066 606.854 132.105 621.015C142.33 616.988 164.462 609.239 171.199 610.457C177.936 611.675 177.412 642.099 176.309 657.159Z" stroke="#FF71F1" stroke-width="19.883"/>
<ellipse cx="40.7958" cy="51.403" rx="40.7958" ry="51.403" transform="matrix(-0.813165 -0.582033 -0.582095 0.813121 433.474 446.628)" fill="#FF71F1"/>
<ellipse cx="40.7958" cy="51.403" rx="40.7958" ry="51.403" transform="matrix(-0.813166 -0.582032 -0.582095 0.813121 274.802 337.789)" fill="#FF71F1"/>
<path d="M230.558 460.494C220.679 474.294 219.931 490.677 228.886 497.087C237.841 503.496 248.03 491.694 262.988 483.706C268.052 465.703 273.615 453.524 264.66 447.114C255.705 440.704 246.396 454.447 230.558 460.494Z" fill="#FF71F1"/>
</svg>
