<svg width="206" height="496" viewBox="0 0 206 496" fill="none" xmlns="http://www.w3.org/2000/svg">
<path d="M157.115 2.43115C150.891 2.94339 138.253 8.93616 137.493 28.8093C136.734 48.6824 134.012 186.48 132.746 252.894C130.305 263.518 125.344 286.522 125.028 293.555C124.633 302.346 90.2632 258.588 86.9052 252.894C84.2188 248.34 77.753 247.627 74.8559 247.84C67.4815 249.172 55.4191 255.832 66.1646 271.816C76.9102 287.801 96.7158 309.379 105.275 318.171C110.016 320.781 119.932 324.436 121.67 318.171L129.581 500.541C129.297 507.366 128.655 520.116 128.16 521.895C128.028 521.945 127.972 521.997 127.999 522.053C128.05 522.157 128.104 522.096 128.16 521.895C131.102 520.797 171.739 521.337 180.218 533.833C179.338 521.815 178.106 496.65 180.218 492.136C182.33 487.622 185.54 369.151 186.881 310.48C199.397 305.561 226.253 285.521 233.549 244.719C242.668 193.717 246.691 145.969 241.058 141.195C236.552 137.375 226.128 139.603 221.479 141.195C211.824 175.004 192.299 244.676 191.441 252.894C190.368 263.167 181.785 285.304 180.444 281.615C179.372 278.663 175.527 106.18 173.739 20.3075C172.938 14.3487 168.49 2.43115 157.115 2.43115Z" fill="#FF71F1" stroke="black" stroke-width="3"/>
<path d="M70.2457 150.601C65.7571 150.97 56.6429 155.292 56.0952 169.624C55.5474 183.956 53.5846 283.331 52.6716 331.228C50.9113 338.889 47.3337 355.479 47.1058 360.551C46.8209 366.891 22.0342 335.334 19.6126 331.228C17.6752 327.943 13.0123 327.429 10.923 327.583C5.6048 328.543 -3.09427 333.346 4.65511 344.874C12.4045 356.401 26.6877 371.963 32.8606 378.303C36.2794 380.186 43.4305 382.822 44.6841 378.303L50.3893 509.823C50.1842 514.745 49.7213 523.94 49.3646 525.223C49.2688 525.258 49.2284 525.297 49.2481 525.337C49.2852 525.412 49.3242 525.368 49.3646 525.223C51.4863 524.431 80.7925 524.82 86.9069 533.832C86.2722 525.165 85.3837 507.017 86.9069 503.762C88.4301 500.506 90.7452 415.068 91.7123 372.757C100.739 369.209 120.106 354.757 125.367 325.332C131.944 288.55 134.845 254.117 130.783 250.673C127.534 247.918 120.016 249.525 116.663 250.673C109.7 275.055 95.6194 325.301 95.0004 331.228C94.2267 338.636 88.0373 354.601 87.0702 351.94C86.2965 349.811 83.5241 225.422 82.2347 163.493C81.6565 159.196 78.4493 150.601 70.2457 150.601Z" fill="#FF71F1" stroke="black" stroke-width="3"/>
</svg>
