<svg width="349" height="602" viewBox="0 0 349 602" fill="none" xmlns="http://www.w3.org/2000/svg">
<path d="M203.303 108.431C212.687 109.288 231.742 119.314 232.887 152.564C234.032 185.813 238.135 416.357 240.044 527.474C243.724 545.247 251.203 583.735 251.68 595.502C252.276 610.21 304.095 537 309.157 527.474C313.208 519.853 322.956 518.661 327.324 519.017C338.442 521.246 356.628 532.389 340.427 559.131C324.227 585.874 294.366 621.977 281.461 636.685C274.314 641.053 259.363 647.168 256.743 636.685L244.815 941.803C245.244 953.222 246.212 974.554 246.958 977.53C247.158 977.613 247.242 977.702 247.201 977.794C247.124 977.968 247.042 977.867 246.958 977.53C242.522 975.693 181.254 976.596 168.472 997.504C169.798 977.397 171.656 935.294 168.472 927.742C165.287 920.189 160.447 721.979 158.426 623.818C139.555 615.588 99.0648 582.061 88.066 513.796C74.3176 428.465 68.2522 348.581 76.7438 340.592C83.5372 334.201 99.2535 337.929 106.262 340.592C120.82 397.157 150.257 513.724 151.551 527.474C153.169 544.66 166.108 581.697 168.13 575.525C169.748 570.586 175.544 282.01 178.239 138.34C179.448 128.37 186.153 108.431 203.303 108.431Z" fill="#FF71F1" stroke="black" stroke-width="3.97582"/>
<path d="M96.1429 2.62842C104.697 3.40962 122.065 12.549 123.109 42.8569C124.153 73.1648 127.894 283.316 129.633 384.603C132.988 400.803 139.806 435.887 140.24 446.613C140.783 460.02 188.018 393.286 192.633 384.603C196.325 377.656 205.211 376.569 209.192 376.894C219.327 378.926 235.905 389.083 221.137 413.46C206.369 437.837 179.15 470.746 167.387 484.153C160.871 488.135 147.244 493.709 144.855 484.153L133.983 762.28C134.373 772.69 135.256 792.135 135.935 794.847C136.118 794.923 136.195 795.003 136.157 795.088C136.087 795.247 136.012 795.154 135.935 794.847C131.892 793.172 76.0443 793.996 64.3922 813.054C65.6017 794.726 67.295 756.348 64.3922 749.463C61.4894 742.578 57.0778 561.902 55.2348 472.425C38.0337 464.922 1.1251 434.361 -8.90069 372.135C-21.4329 294.352 -26.9618 221.534 -19.2213 214.253C-13.0289 208.427 1.2971 211.825 7.68607 214.253C20.9555 265.814 47.7892 372.069 48.9687 384.603C50.4431 400.269 62.2381 434.03 64.0811 428.403C65.5555 423.901 70.8387 160.853 73.296 29.8912C74.3978 20.8036 80.5096 2.62842 96.1429 2.62842Z" fill="#FF71F1" stroke="black" stroke-width="3.97582"/>
</svg>
