<svg width="229" height="92" viewBox="0 0 229 92" fill="none" xmlns="http://www.w3.org/2000/svg">
<g clip-path="url(#clip0_126_525)">
<path d="M12.1025 25.2792H7.54385V44.6533H0.861328V0.569336H7.54385V18.234H12.1025V0.569336H18.785V44.7051H12.1025V25.2792Z" fill="white"/>
<path d="M30.2853 45.1712H28.9902C23.6546 45.1712 20.8054 42.2703 20.8054 36.831V27.9728H27.4361V35.6913C27.4361 37.7116 28.1096 38.7995 29.6119 38.7995C31.2177 38.7995 31.7876 37.7116 31.7876 35.0179V34.0336C31.7876 30.8737 31.4767 29.7858 29.042 26.6259L24.846 21.083C21.9969 17.405 21.168 14.5559 21.168 10.1527V8.75401C21.168 2.90032 24.1208 0.154785 29.4046 0.154785H30.6479C36.139 0.154785 38.3147 2.5895 38.3147 7.82156V15.0739H31.8394V8.70221C31.8394 7.19993 31.5285 6.11208 29.9227 6.11208C28.3168 6.11208 27.9542 7.09633 27.9542 9.22023V10.0491C27.9542 12.5356 28.4204 13.8825 30.6997 16.8352L34.9475 22.3263C37.9521 26.2633 38.9363 28.4908 38.9363 33.4638V34.8625C38.9363 41.3378 36.139 45.1712 30.2853 45.1712Z" fill="white"/>
<path d="M56.0826 0.569336V6.99286H47.5351V18.5448H54.2177V25.2274H47.5351V37.9708H56.4452V44.6533H40.8525V0.569336H56.0826Z" fill="white"/>
<path d="M74.5248 36.3649H69.6554L68.7747 44.6533H62.7656L68.1531 0.517578H76.0789L81.829 44.6533H75.3536L74.5248 36.3649ZM73.7996 29.786L72.0383 13.4682L70.3288 29.786H73.7996Z" fill="white"/>
<path d="M89.6513 44.7051H82.9688V0.569336H93.8473C98.3023 0.569336 100.53 2.48603 100.53 7.40728V15.2295C100.53 18.9074 98.8203 20.3061 97.6289 20.8759C99.1311 21.5494 100.53 22.7408 100.53 25.6936V41.1825C100.53 42.9438 100.892 43.7727 101.203 44.4461V44.7569H94.5725C94.2617 44.2907 93.8991 43.5137 93.8991 41.1307V27.7657C93.8991 25.7972 93.5365 24.9683 91.4126 24.9683H89.7031L89.6513 44.7051ZM89.6513 18.7002H91.4126C93.2774 18.7002 93.8473 17.5088 93.8473 15.5403V9.37577C93.8473 7.45908 93.4329 6.52664 91.4126 6.52664H89.6513V18.7002Z" fill="white"/>
<path d="M114.05 6.94106V44.6533H107.419V6.94106H101.773V0.569336H119.697V6.99286L114.05 6.94106Z" fill="white"/>
<path d="M137.62 36.3649H132.751L131.87 44.6533H125.861L131.249 0.517578H139.174L144.924 44.6533H138.449L137.62 36.3649ZM136.895 29.786L135.134 13.4682L133.424 29.786H136.895Z" fill="white"/>
<path d="M152.073 0.569336L157.823 24.2431V0.569336H163.935V44.7051H158.496L152.073 19.3219V44.7051H146.012V0.569336H152.073Z" fill="white"/>
<path d="M166.422 0.569336H176.731C182.481 0.569336 184.242 3.8329 184.242 9.06496V35.9505C184.242 41.3379 182.222 44.7051 176.731 44.7051H166.474V0.569336H166.422ZM173.156 38.2816H174.762C176.782 38.2816 177.352 37.1937 177.352 34.8626V9.9974C177.352 7.45908 176.679 6.57844 175.021 6.57844H173.104V38.2816H173.156Z" fill="white"/>
<path d="M0.861328 46.9844H11.1182C16.8683 46.9844 18.6296 50.2479 18.6296 55.48V82.3655C18.6296 87.753 16.6093 91.1201 11.1182 91.1201H0.861328V46.9844ZM7.54385 84.7484H9.14973C11.17 84.7484 11.7399 83.6606 11.7399 81.3295V56.4642C11.7399 53.9259 11.0664 53.0453 9.40874 53.0453H7.49205V84.7484H7.54385Z" fill="white"/>
<path d="M36.2944 46.9844V53.4079H27.747V64.9599H34.4296V71.6424H27.747V84.3858H36.6571V91.0683H21.0127V46.9844H36.2944Z" fill="white"/>
<path d="M47.3285 91.5861H46.0334C40.6978 91.5861 37.8486 88.6852 37.8486 83.2459V74.3877H44.4794V82.1063C44.4794 84.1266 45.1528 85.2144 46.6551 85.2144C48.2609 85.2144 48.8308 84.1266 48.8308 81.4328V80.4486C48.8308 77.2886 48.52 76.2008 46.0852 73.0408L41.8374 67.6016C38.9883 63.9236 38.1594 61.0744 38.1594 56.6712V55.2726C38.1594 49.4189 41.1122 46.6733 46.3961 46.6733H47.6393C53.1822 46.6733 55.3061 49.1081 55.3061 54.3401V61.5925H48.8308V55.2208C48.8308 53.7185 48.52 52.6306 46.9141 52.6306C45.3082 52.6306 44.9456 53.6149 44.9456 55.7388V56.5676C44.9456 59.0541 45.4118 60.401 47.6911 63.3538L51.9389 68.8448C54.9435 72.7818 55.9277 75.0093 55.9277 79.9824V81.381C55.9795 87.7528 53.1822 91.5861 47.3285 91.5861Z" fill="white"/>
<path d="M64.5783 91.1201H57.8958V46.9844H64.5783V91.1201Z" fill="white"/>
<path d="M73.2817 91.7416C69.3447 91.7416 66.8582 88.2191 66.8582 83.6604V56.0497C66.8582 51.1284 68.7748 46.5698 75.0948 46.5698H76.3898C83.5904 46.5698 84.4192 51.2321 84.4192 56.4641V60.9709H77.8921V55.9979C77.8921 54.0294 77.4259 52.9933 75.7682 52.9933C74.3695 52.9933 73.6961 54.0812 73.6961 55.9979V81.7956C73.6961 83.8677 74.5249 84.9555 75.8718 84.9555C77.5813 84.9555 78.3583 83.764 78.3583 82.1064V71.0724H75.3538V64.2863H84.73V91.12H80.9484C80.8966 90.861 80.3786 88.6853 79.8088 86.7686C79.3426 88.2709 77.0633 91.6898 73.6961 91.6898H73.2817V91.7416Z" fill="white"/>
<path d="M93.1219 46.9844L98.872 70.6581V46.9844H104.985V91.1201H99.5455L93.1219 65.7369V91.1201H87.061V46.9844H93.1219Z" fill="white"/>
<path d="M122.494 91.5861H121.199C115.863 91.5861 113.014 88.6852 113.014 83.2459V74.3877H119.645V82.1063C119.645 84.1266 120.318 85.2144 121.821 85.2144C123.426 85.2144 123.996 84.1266 123.996 81.4328V80.4486C123.996 77.2886 123.685 76.2008 121.251 73.0408L117.003 67.6016C114.154 63.9236 113.325 61.0744 113.325 56.6712V55.2726C113.325 49.4189 116.278 46.6733 121.562 46.6733H122.805C128.296 46.6733 130.472 49.1081 130.472 54.3401V61.5925H123.996V55.2208C123.996 53.7185 123.685 52.6306 122.08 52.6306C120.474 52.6306 120.111 53.6149 120.111 55.7388V56.5676C120.111 59.0541 120.577 60.401 122.857 63.3538L127.104 68.8448C130.109 72.7818 131.093 75.0093 131.093 79.9824V81.381C131.145 87.7528 128.348 91.5861 122.494 91.5861Z" fill="white"/>
<path d="M143.992 82.1582V71.9013H150.571V82.1064C150.571 86.8722 149.016 91.6381 142.541 91.6381H141.039C134.253 91.6381 132.802 86.7686 132.802 82.3136V55.3763C132.802 50.8695 134.771 46.5181 140.832 46.5181H142.386C149.742 46.5181 150.571 51.3875 150.571 55.6871V63.5611H143.992V55.7907C143.992 53.874 143.422 52.8898 141.712 52.8898C140.055 52.8898 139.64 53.8222 139.64 55.7907V82.0028C139.64 83.9713 140.314 85.0074 141.764 85.0074C143.422 85.1628 143.992 83.9713 143.992 82.1582Z" fill="white"/>
<path d="M163.987 71.746H159.429V91.1201H152.746V46.9844H159.429V64.649H163.987V46.9844H170.67V91.1201H163.987V71.746Z" fill="white"/>
<path d="M191.34 81.2775C191.34 87.442 189.267 91.638 182.792 91.638H181.652C175.229 91.638 173.001 87.442 173.001 81.2775V56.7231C173.001 50.6104 175.333 46.5698 181.601 46.5698H182.74C189.267 46.5698 191.34 50.6104 191.34 56.6713V81.2775ZM184.502 56.3605C184.502 54.0294 183.725 52.9933 182.171 52.9933C180.461 52.9933 179.788 54.133 179.788 56.3605V81.7438C179.788 83.6604 180.306 85.1109 182.222 85.1109C183.984 85.1109 184.502 83.6086 184.502 81.7438V56.3605Z" fill="white"/>
<path d="M211.801 81.2775C211.801 87.442 209.729 91.638 203.254 91.638H202.114C195.691 91.638 193.463 87.442 193.463 81.2775V56.7231C193.463 50.6104 195.794 46.5698 202.063 46.5698H203.202C209.729 46.5698 211.801 50.6104 211.801 56.6713V81.2775ZM204.964 56.3605C204.964 54.0294 204.187 52.9933 202.632 52.9933C200.923 52.9933 200.25 54.133 200.25 56.3605V81.7438C200.25 83.6604 200.768 85.1109 202.684 85.1109C204.446 85.1109 204.964 83.6086 204.964 81.7438V56.3605Z" fill="white"/>
<path d="M220.815 46.9844V84.2822H228.999V91.1201H214.132V46.9844H220.815Z" fill="white"/>
</g>
<defs>
<clipPath id="clip0_126_525">
<rect width="228.449" height="91.6905" fill="white" transform="translate(0.550781 0.154785)"/>
</clipPath>
</defs>
</svg>
