<svg width="204" height="52" viewBox="0 0 204 52" fill="none" xmlns="http://www.w3.org/2000/svg">
<path d="M24.7838 0.943198V21.2409H19.7851V8.33521L14.5441 21.2409H11.666L6.42499 8.33521L6.42499 21.2409H1.42629L1.42629 0.943198L8.36388 0.943198L13.1202 13.0007L17.9068 0.943198L24.7838 0.943198Z" fill="white"/>
<path d="M47.9104 21.2409H42.2452L40.8213 17.4843H32.9446L31.551 21.2409H26.0979L34.1867 0.943198L39.7913 0.943198L47.9104 21.2409ZM36.8527 7.06281L34.5502 13.243H39.2157L36.8527 7.06281Z" fill="white"/>
<path d="M59.7179 0.943198C61.7376 0.943198 63.4341 1.62989 64.8075 3.00327C66.1809 4.35645 66.8676 6.05298 66.8676 8.09285C66.8676 10.1933 66.1708 11.9201 64.7772 13.2733C63.4038 14.6265 61.7174 15.3031 59.7179 15.3031H54.2345V21.2409H49.2358V0.943198L59.7179 0.943198ZM54.2345 10.577H59.2635C59.9704 10.577 60.5662 10.3549 61.0509 9.91056C61.5356 9.46623 61.778 8.87042 61.778 8.12314C61.778 7.43645 61.5255 6.88104 61.0206 6.45691C60.5359 6.01258 59.9502 5.79042 59.2635 5.79042H54.2345V10.577Z" fill="white"/>
<path d="M83.9616 12.7886H89.0814C88.8189 15.3738 87.7485 17.5045 85.8702 19.1809C83.9919 20.8572 81.6087 21.6954 78.7205 21.6954C75.5698 21.6954 73.025 20.6855 71.0861 18.6658C69.1473 16.6462 68.1778 14.1418 68.1778 11.1527C68.1778 8.14334 69.1473 5.61875 71.0861 3.57887C73.025 1.5188 75.5698 0.48877 78.7205 0.48877C81.5279 0.48877 83.8707 1.31684 85.749 2.97297C87.6273 4.60891 88.7179 6.67908 89.0209 9.18347H83.8404C83.5374 8.03226 82.9315 7.11331 82.0227 6.42662C81.1138 5.71973 79.9929 5.37638 78.6599 5.39658C76.9836 5.41678 75.6607 5.97219 74.6913 7.06281C73.742 8.15344 73.2674 9.49652 73.2674 11.0921C73.2674 12.6876 73.7521 14.0408 74.7216 15.1516C75.691 16.2422 77.024 16.7876 78.7205 16.7876C80.0737 16.7876 81.2148 16.4341 82.1439 15.7272C83.0729 15.0001 83.6788 14.0206 83.9616 12.7886Z" fill="white"/>
<path d="M19.9973 27.467V42.9175H22.633V51.8848H17.8767V47.7647H5.2739L5.2739 51.8848H0.517578L0.517578 42.9175H1.42643C1.66879 42.9175 1.87076 42.8973 2.03233 42.8569C2.21411 42.8165 2.44636 42.6145 2.72912 42.251C3.01187 41.8874 3.20373 41.3623 3.30471 40.6756C3.4057 39.9889 3.47639 38.7569 3.51678 36.9796C3.57737 35.2023 3.60767 33.2735 3.60767 31.1933C3.62786 29.0928 3.63797 27.8507 3.63797 27.467H19.9973ZM7.72781 42.9175H14.9986L14.9986 32.3142H8.39429C8.3135 37.1816 8.19234 40.201 8.03077 41.3724C7.92978 42.0389 7.8288 42.5539 7.72781 42.9175Z" fill="white"/>
<path d="M35.2912 49.6521C33.6289 51.3991 33.6289 51.3991 33.6289 51.3991C33.6289 51.3991 33.6289 51.3991 31.9478 49.6521C30.2668 47.905 22.7987 40.6453 22.7987 37.6764C22.7987 34.6873 23.7883 32.1627 25.7676 30.1026C27.7469 28.0426 30.3422 27.0125 33.5534 27.0125C36.7647 27.0125 39.36 28.0426 41.3393 30.1026C43.3186 32.1627 44.3082 34.6873 44.3082 37.6764C44.3082 40.6453 36.9536 47.905 35.2912 49.6521ZM33.5534 47.182C35.2702 47.182 36.6436 42.7559 37.6736 41.6451C38.7036 40.5343 39.2187 39.1912 39.2187 37.6158C39.2187 36.0203 38.7036 34.6772 37.6736 33.5866C36.6638 32.4757 35.2904 31.9203 33.5534 31.9203C31.8165 31.9203 30.4331 32.4757 29.403 33.5866C28.3932 34.6772 27.8883 36.0203 27.8883 37.6158C27.8883 39.1912 28.3932 40.5343 29.403 41.6451C30.4331 42.7559 31.8165 47.182 33.5534 47.182Z" fill="white"/>
<path d="M61.4813 39.3124H66.6011C66.3386 41.8975 65.2682 44.0283 63.3899 45.7046C61.5116 47.381 59.1284 48.2191 56.2403 48.2191C53.0896 48.2191 50.5447 47.2093 48.6059 45.1896C46.667 43.1699 45.6975 40.6655 45.6975 37.6764C45.6975 34.6671 46.667 32.1425 48.6059 30.1026C50.5447 28.0426 53.0896 27.0125 56.2403 27.0125C59.0476 27.0125 61.3904 27.8406 63.2687 29.4967C65.147 31.1327 66.2376 33.2028 66.5405 35.7072H61.3601C61.0572 34.556 60.4513 33.6371 59.5424 32.9504C58.6335 32.2435 57.5127 31.9001 56.1797 31.9203C54.5033 31.9405 53.1804 32.4959 52.211 33.5866C51.2617 34.6772 50.7871 36.0203 50.7871 37.6158C50.7871 39.2114 51.2718 40.5646 52.2413 41.6754C53.2107 42.766 54.5438 43.3113 56.2403 43.3113C57.5935 43.3113 58.7345 42.9579 59.6636 42.251C60.5926 41.5239 61.1985 40.5444 61.4813 39.3124Z" fill="white"/>
<path d="M66.6994 27.467H84.8462V32.3142H78.2722V47.7647H73.2734V32.3142H66.6994V27.467Z" fill="white"/>
<path d="M103.831 47.7647H98.1654L96.7415 44.0081H88.8648L87.4712 47.7647H82.0181L90.1069 27.467H95.7115L103.831 47.7647ZM92.7729 33.5866L90.4705 39.7668H95.1359L92.7729 33.5866Z" fill="white"/>
<path d="M119.304 37.0705V37.1917C120.273 37.535 121.071 38.1106 121.697 38.9185C122.323 39.7264 122.636 40.7261 122.636 41.9177C122.636 43.6143 122.03 45.0179 120.819 46.1288C119.627 47.2194 118.163 47.7647 116.426 47.7647H105.156V27.467H116.062C117.779 27.467 119.213 27.9618 120.364 28.9514C121.515 29.9411 122.091 31.2336 122.091 32.8292C122.091 33.7582 121.839 34.6065 121.334 35.374C120.829 36.1213 120.152 36.6868 119.304 37.0705ZM115.062 31.9203H110.155V35.5255H115.062C115.628 35.5255 116.082 35.3437 116.426 34.9801C116.789 34.5964 116.971 34.1723 116.971 33.7077C116.971 33.2432 116.799 32.8292 116.456 32.4657C116.113 32.1021 115.648 31.9203 115.062 31.9203ZM110.155 43.3416H115.487C116.072 43.3416 116.557 43.1396 116.941 42.7357C117.325 42.3318 117.516 41.8773 117.516 41.3724C117.516 40.9079 117.325 40.504 116.941 40.1606C116.557 39.7971 116.072 39.6153 115.487 39.6153H110.155V43.3416Z" fill="white"/>
<path d="M142.858 27.467V47.7647H137.86V32.2839H131.558C131.478 37.4946 131.356 40.6756 131.195 41.8269C131.033 42.9579 130.771 43.9273 130.407 44.7352C130.044 45.5229 129.67 46.1086 129.286 46.4923C128.903 46.876 128.418 47.1689 127.832 47.3709C127.246 47.5728 126.792 47.694 126.469 47.7344C126.166 47.7546 125.752 47.7647 125.227 47.7647H123.621V42.766H124.591C124.833 42.766 125.035 42.7458 125.196 42.7054C125.378 42.665 125.61 42.4631 125.893 42.0995C126.176 41.736 126.368 41.2108 126.469 40.5242C126.57 39.8375 126.641 38.6257 126.681 36.8887C126.741 35.1316 126.772 33.223 126.772 31.163C126.792 29.0827 126.802 27.8507 126.802 27.467H142.858Z" fill="white"/>
<path d="M165.005 27.467V47.7647H160.006V41.2209H152.887C152.12 41.2209 151.736 41.5946 151.736 42.3419V47.7647H146.737V41.4633C146.737 39.2821 147.606 37.9794 149.343 37.5552V37.4341C148.01 36.4848 147.343 35.0508 147.343 33.1321C147.343 31.3144 147.989 29.9209 149.282 28.9514C150.595 27.9618 152.342 27.467 154.523 27.467H165.005ZM154.947 36.7979H160.006V32.3142H154.917C154.149 32.3142 153.523 32.506 153.039 32.8898C152.554 33.2735 152.311 33.8087 152.311 34.4954C152.311 35.2225 152.544 35.788 153.008 36.192C153.493 36.5959 154.139 36.7979 154.947 36.7979Z" fill="white"/>
<path d="M184.104 47.7647H168.29V27.467H184.104V32.3142H173.289V35.2225H182.59V39.7668H173.289V42.9175H184.104V47.7647Z" fill="white"/>
<path d="M185.335 27.467L203.482 27.467V32.3142H196.908V47.7647H191.91V32.3142H185.335V27.467Z" fill="white"/>
</svg>
