<svg width="205" height="77" viewBox="0 0 205 77" fill="none" xmlns="http://www.w3.org/2000/svg">
<path d="M23.557 20.7884L28.8105 40.3945L23.9821 41.6883L20.6418 29.2223L18.9196 43.0447L16.1396 43.7896L7.73693 32.6801L11.0772 45.1461L6.24881 46.4399L0.995366 26.8338L7.69656 25.0382L15.4115 35.4538L16.9144 22.5683L23.557 20.7884Z" fill="white"/>
<path d="M51.149 34.4089L45.6768 35.8752L43.3292 32.6151L35.7209 34.6538L35.347 38.643L30.0797 40.0544L32.6395 18.3548L38.0531 16.9042L51.149 34.4089ZM36.7985 23.5758L36.1741 30.1414L40.6805 28.9339L36.7985 23.5758Z" fill="white"/>
<path d="M57.3007 11.7468C59.2516 11.2241 61.068 11.4483 62.7501 12.4194C64.4269 13.371 65.5293 14.832 66.0572 16.8024C66.6009 18.8312 66.3748 20.6796 65.3789 22.3473C64.4025 24.0099 62.9487 25.0999 61.0174 25.6174L55.7208 27.0366L57.2576 32.7721L52.4292 34.0659L47.1758 14.4598L57.3007 11.7468ZM54.4976 22.4716L59.3552 21.17C60.038 20.987 60.556 20.6182 60.9092 20.0636C61.2624 19.5089 61.3423 18.8707 61.1489 18.1489C60.9712 17.4856 60.5836 17.0145 59.9861 16.7355C59.4029 16.4317 58.7796 16.3687 58.1163 16.5465L53.2587 17.8481L54.4976 22.4716Z" fill="white"/>
<path d="M83.7841 16.9138L88.7296 15.5887C89.145 18.1538 88.6626 20.489 87.2821 22.5943C85.9017 24.6997 83.8166 26.1261 81.0269 26.8736C77.9836 27.6891 75.2641 27.3723 72.8686 25.9232C70.473 24.4742 68.8884 22.3061 68.1148 19.4188C67.3359 16.512 67.6189 13.8225 68.9638 11.3503C70.3034 8.85865 72.4949 7.20507 75.5382 6.38961C78.2499 5.66301 80.7272 5.8565 82.9702 6.97006C85.2079 8.06412 86.7971 9.78147 87.738 12.1221L82.734 13.4629C82.1434 12.4293 81.3203 11.6985 80.2647 11.2705C79.2039 10.8229 78.0323 10.7814 76.7499 11.1459C75.136 11.5993 74.0019 12.4781 73.3478 13.7825C72.7131 15.0816 72.6023 16.5018 73.0153 18.043C73.4282 19.5842 74.2466 20.7658 75.4706 21.5878C76.6892 22.3904 78.118 22.5721 79.7567 22.133C81.0637 21.7828 82.0745 21.1461 82.7889 20.2228C83.4981 19.28 83.8299 18.1771 83.7841 16.9138Z" fill="white"/>
<path d="M25.7985 47.6472L29.7974 62.5713L32.3432 61.8891L34.6641 70.5509L30.0699 71.7819L29.0035 67.8022L16.8302 71.064L17.8965 75.0438L13.3023 76.2748L10.9814 67.613L11.8592 67.3778C12.0933 67.3151 12.2832 67.2433 12.4288 67.1624C12.5939 67.0764 12.766 66.8212 12.945 66.3968C13.1241 65.9725 13.1735 65.4156 13.0933 64.7262C13.0131 64.0368 12.7625 62.8284 12.3415 61.1012C11.9401 59.3688 11.4701 57.4979 10.9317 55.4885C10.4076 53.4544 10.0959 52.252 9.99654 51.8813L25.7985 47.6472ZM17.9459 65.7469L24.969 63.865L22.2247 53.623L15.8453 55.3324C17.0271 60.0548 17.6915 63.0027 17.8386 64.176C17.9136 64.846 17.9494 65.3696 17.9459 65.7469Z" fill="white"/>
<path d="M46.3132 65.1181C45.1596 67.2358 45.1596 67.2358 45.1596 67.2358C45.1596 67.2358 45.1596 67.2358 43.0837 65.9834C41.0078 64.7309 31.9152 59.6515 31.1468 56.7838C30.3731 53.8965 30.6756 51.2018 32.0543 48.6996C33.4329 46.1975 35.6732 44.5308 38.775 43.6997C41.8769 42.8685 44.6504 43.1918 47.0954 44.6694C49.5404 46.147 51.1497 48.3294 51.9234 51.2167C52.6918 54.0844 47.4667 63.0003 46.3132 65.1181ZM43.9953 63.1819C45.6535 62.7376 45.8346 58.1068 46.542 56.7673C47.2494 55.4277 47.3993 53.9971 46.9916 52.4754C46.5786 50.9343 45.7335 49.7702 44.4563 48.9833C43.1934 48.1717 41.723 47.9907 40.0453 48.4403C38.3675 48.8898 37.175 49.7844 36.4675 51.1239C35.7744 52.4388 35.6343 53.8668 36.0473 55.408C36.455 56.9296 37.2903 58.0963 38.5532 58.9079C39.8357 59.7142 42.3176 63.6314 43.9953 63.1819Z" fill="white"/>
<path d="M68.9347 48.3522L73.8801 47.027C74.2956 49.5921 73.8132 51.9273 72.4327 54.0326C71.0523 56.138 68.9673 57.5644 66.1775 58.3119C63.1342 59.1274 60.4147 58.8106 58.0191 57.3616C55.6236 55.9125 54.039 53.7444 53.2653 50.8571C52.4865 47.9503 52.7695 45.2608 54.1143 42.7886C55.454 40.297 57.6455 38.6434 60.6889 37.8279C63.4005 37.1013 65.8778 37.2948 68.1208 38.4084C70.3585 39.5024 71.9477 41.2198 72.8885 43.5604L67.8846 44.9012C67.294 43.8677 66.4709 43.1368 65.4153 42.7088C64.3544 42.2612 63.1829 42.2197 61.9005 42.5842C60.2866 43.0376 59.1525 43.9164 58.4983 45.2208C57.8637 46.5199 57.7529 47.9401 58.1659 49.4813C58.5788 51.0225 59.3972 52.2041 60.6211 53.0262C61.8398 53.8287 63.2686 54.0104 64.9073 53.5713C66.2144 53.2211 67.2251 52.5844 67.9395 51.6611C68.6487 50.7183 68.9805 49.6154 68.9347 48.3522Z" fill="white"/>
<path d="M70.9092 35.5598L88.4377 30.8631L89.6922 35.5451L83.3422 37.2466L87.3411 52.1707L82.5126 53.4645L78.5137 38.5404L72.1637 40.2419L70.9092 35.5598Z" fill="white"/>
<path d="M112.029 45.5557L106.556 47.0219L104.209 43.7619L96.6005 45.8005L96.2267 49.7898L90.9594 51.2012L93.5191 29.5015L98.9327 28.0509L112.029 45.5557ZM97.6781 34.7226L97.0537 41.2881L101.56 40.0806L97.6781 34.7226Z" fill="white"/>
<path d="M124.207 31.2211L124.238 31.3382C125.263 31.4189 126.183 31.7684 126.997 32.3867C127.811 33.005 128.372 33.8897 128.68 35.0407C129.119 36.6794 128.897 38.1921 128.014 39.5787C127.146 40.9406 125.872 41.8463 124.195 42.2958L113.309 45.2127L108.055 25.6065L118.59 22.7838C120.248 22.3395 121.761 22.4463 123.13 23.1043C124.498 23.7622 125.388 24.8618 125.801 26.403C126.042 27.3003 126.017 28.185 125.728 29.0571C125.434 29.9096 124.927 30.6309 124.207 31.2211ZM118.777 27.3442L114.036 28.6144L114.969 32.0967L119.71 30.8265C120.256 30.6801 120.648 30.3869 120.886 29.9469C121.138 29.4821 121.203 29.0254 121.083 28.5767C120.963 28.128 120.69 27.7725 120.264 27.5102C119.838 27.2479 119.343 27.1926 118.777 27.3442ZM116.992 39.6465L122.143 38.2665C122.708 38.1149 123.124 37.7944 123.39 37.3049C123.657 36.8154 123.724 36.3268 123.594 35.8391C123.473 35.3904 123.184 35.0499 122.724 34.8175C122.259 34.5657 121.744 34.5156 121.178 34.6672L116.028 36.0472L116.992 39.6465Z" fill="white"/>
<path d="M144.473 15.8484L149.727 35.4545L144.898 36.7483L140.892 21.795L134.805 23.4259C136.075 28.48 136.782 31.584 136.924 32.7378C137.06 33.8721 137.058 34.8764 136.916 35.7509C136.768 36.6058 136.559 37.2683 136.288 37.7382C136.016 38.2082 135.624 38.6165 135.11 38.9632C134.597 39.3099 134.189 39.5446 133.888 39.6672C133.6 39.7651 133.203 39.8821 132.696 40.018L131.145 40.4335L129.851 35.6052L130.787 35.3543C131.022 35.2915 131.211 35.2197 131.357 35.1389C131.522 35.0528 131.694 34.7976 131.873 34.3733C132.052 33.949 132.102 33.3921 132.022 32.7026C131.941 32.0132 131.696 30.8244 131.285 29.1362C130.889 27.4233 130.424 25.5719 129.891 23.582C129.372 21.5674 129.063 20.3748 128.964 20.0041L144.473 15.8484Z" fill="white"/>
<path d="M165.865 10.1164L171.119 29.7226L166.29 31.0163L164.597 24.6955L157.72 26.5382C156.979 26.7368 156.705 27.197 156.898 27.9188L158.302 33.1569L153.473 34.4506L151.842 28.364C151.278 26.257 151.779 24.774 153.347 23.9147L153.316 23.7977C151.783 23.2258 150.768 22.0132 150.271 20.1599C149.801 18.4041 150.064 16.8907 151.062 15.6198C152.074 14.3241 153.633 13.394 155.74 12.8294L165.865 10.1164ZM158.565 21.7326L163.452 20.4232L162.291 16.0923L157.375 17.4095C156.634 17.6082 156.079 17.9555 155.71 18.4517C155.341 18.9478 155.245 19.5275 155.423 20.1908C155.611 20.8931 155.982 21.3792 156.535 21.6492C157.108 21.9139 157.785 21.9417 158.565 21.7326Z" fill="white"/>
<path d="M189.567 24.7793L174.292 28.8723L169.039 9.26614L184.314 5.17316L185.568 9.85522L175.122 12.6544L175.874 15.4637L184.858 13.0565L186.034 17.4459L177.05 19.8531L177.866 22.8964L188.313 20.0972L189.567 24.7793Z" fill="white"/>
<path d="M185.503 4.85455L203.031 0.157811L204.286 4.83986L197.936 6.54137L201.935 21.4654L197.106 22.7592L193.107 7.83512L186.757 9.5366L185.503 4.85455Z" fill="white"/>
</svg>
